<?xml version="1.0" encoding="UTF-8" standalone="no"?>
<svg width="138px" height="134px" viewBox="0 0 138 134" version="1.1" xmlns="http://www.w3.org/2000/svg" xmlns:xlink="http://www.w3.org/1999/xlink" xmlns:sketch="http://www.bohemiancoding.com/sketch/ns">
    <!-- Generator: Sketch 3.0.4 (8053) - http://www.bohemiancoding.com/sketch -->
    <title>logo</title>
    <desc>Created with Sketch.</desc>
    <defs></defs>
    <g id="Page-1" stroke="none" stroke-width="1" fill="none" fill-rule="evenodd" sketch:type="MSPage">
        <g id="Market-Place" sketch:type="MSArtboardGroup" transform="translate(-316.000000, -52.000000)" fill="#1A1918">
            <g id="logo" sketch:type="MSLayerGroup" transform="translate(316.000000, 53.000000)">
                <path d="M63.8850205,127.476874 L63.8826575,127.476874 L63.5835,127.475928 C46.5731096,127.399252 30.6090616,120.690561 18.6342534,108.586615 C6.6589726,96.4831412 0.106808219,80.4346323 0.183842466,63.397853 C0.26040411,46.4126644 6.92268493,30.4592907 18.9442808,18.4769846 C30.9620959,6.49846506 46.9148014,-0.0980509504 63.8646986,-0.0980509504 L64.1638562,-0.0975776408 C82.6317534,-0.0128552209 100.136014,8.0864188 112.187384,22.1233619 L112.984664,23.0524686 L86.6436781,44.1838494 L85.8964932,43.3716501 C80.274411,37.2616964 72.2973493,33.7355398 64.0102603,33.6972017 L63.8750959,33.6967284 C47.4379726,33.6967284 34.0032945,47.0880772 33.9276781,63.5478921 C33.8548973,80.0867498 47.2271918,93.6049455 63.7366233,93.6811483 L63.8675342,93.6811483 C73.2690205,93.6811483 81.9450616,89.3863369 87.669226,81.8976323 L88.0260411,81.430949 L125.041705,81.5994473 L124.551144,83.1353369 C120.470692,95.9170629 112.595712,106.920565 101.777836,114.955942 C90.7505959,123.147038 77.6472123,127.476874 63.8850205,127.476874 L63.8850205,127.476874 Z M63.8646986,2.26849709 C30.2054589,2.26849709 2.69856164,29.6958423 2.54685616,63.4082658 C2.47218493,79.8136501 8.78190411,95.2667355 20.3124658,106.921038 C31.8439726,118.575814 47.2149041,125.035543 63.5943699,125.10938 L63.8831301,125.110326 C90.1295959,125.110326 113.197336,108.638205 121.787836,83.9508494 L89.1825,83.8027035 C83.0065274,91.592433 73.8139315,96.0476964 63.8675342,96.0476964 L63.726226,96.0476964 C45.9128836,95.9653405 31.4857397,81.3812515 31.5646644,63.537006 C31.6468973,45.7779562 46.1411507,31.3301804 63.8750959,31.3301804 L64.0211301,31.3306537 C72.5941438,31.3699384 80.8599658,34.8695896 86.8724178,40.9681839 L109.588541,22.7448174 C98.0163904,9.79601311 81.5277534,2.34848642 64.1525137,2.2689704 L63.8646986,2.26849709 L63.8646986,2.26849709 Z" id="Fill-1" sketch:type="MSShapeGroup"></path>
                <path d="M70.993911,63.7206501 C71.0104521,59.7860273 67.8411781,56.5788814 63.9067603,56.559949 C59.9747055,56.54007 56.7756575,59.7202373 56.7591164,63.6572266 C56.7369041,67.5932693 59.9090137,70.7966288 63.8410685,70.818401 C67.7726507,70.8378067 70.9797329,67.6609526 70.993911,63.7206501" id="Fill-2" sketch:type="MSShapeGroup"></path>
                <path d="M77.4411575,67.5970558 L79.4431027,67.6240345 C80.6047603,67.6301875 81.4417397,67.8270843 81.9497877,68.2019455 C82.4507466,68.584853 82.7021712,69.0676288 82.6993356,69.6426999 C82.6884658,70.272675 82.319363,70.7819562 81.5702877,71.1464046 C82.4067945,71.4280238 82.8311918,71.9510309 82.8193767,72.720159 C82.8165411,73.3420878 82.5433767,73.8295967 82.0187877,74.2049313 C81.496089,74.5802658 80.799,74.7582302 79.9431164,74.7525505 L77.3783014,74.7222587 L77.4411575,67.5970558 L77.4411575,67.5970558 Z M79.3963151,68.9933192 L79.379774,70.5240024 C80.2630685,70.5135896 80.697863,70.2669953 80.7063699,69.788006 C80.7040068,69.4926608 80.6075959,69.2924508 80.3944521,69.182643 C80.1893425,69.0643156 79.8556849,68.9989989 79.3963151,68.9933192 L79.3963151,68.9933192 Z M79.3712671,71.8142444 L79.3608699,73.3558138 C79.8500137,73.3614935 80.2332945,73.2928636 80.4681781,73.1830558 C80.7257466,73.0680416 80.8533493,72.8706715 80.8533493,72.5914188 C80.8618562,72.0792978 80.4133562,71.8279704 79.5362055,71.8170843 L79.3712671,71.8142444 L79.3712671,71.8142444 Z" id="Fill-3" sketch:type="MSShapeGroup"></path>
                <path d="M85.6308904,69.8888209 L85.6280548,70.7109597 L85.6497945,70.7109597 C86.1091644,70.0781448 86.5846027,69.7657604 87.082726,69.7738067 C87.1564521,69.7709668 87.2519178,69.7851661 87.3941712,69.8093049 L87.3781027,71.3319419 C87.1451096,71.290764 86.9319658,71.2746715 86.7348904,71.2666252 C86.0515068,71.2614188 85.6961096,71.6277604 85.6857123,72.3727498 L85.6606644,74.8102942 L83.7768699,74.7937284 L83.8312192,69.8779348 L85.6308904,69.8888209" id="Fill-4" sketch:type="MSShapeGroup"></path>
                <path d="M88.2637603,68.4461732 C88.2637603,68.2156715 88.356863,68.0239811 88.556774,67.8625825 C88.7557397,67.7149099 88.9854247,67.632554 89.2557534,67.6406003 C89.5407329,67.6382337 89.7699452,67.7201163 89.9670205,67.8763085 C90.153226,68.0490665 90.252,68.2407569 90.2434932,68.4651056 C90.2406575,68.6951341 90.153226,68.8863512 89.9533151,69.0425434 C89.7505685,69.2039419 89.5213562,69.2839313 89.2425205,69.2730451 C88.9717192,69.2730451 88.7420342,69.1940024 88.5449589,69.0288174 C88.359226,68.8622124 88.258089,68.6762017 88.2637603,68.4461732 M88.2963699,69.9247925 L90.1863082,69.9385184 L90.1366849,74.8509989 L88.2443836,74.8315932 L88.2963699,69.9247925" id="Fill-5" sketch:type="MSShapeGroup"></path>
                <path d="M93.3929178,69.9711768 L93.3825205,70.6366501 L93.4151301,70.6338103 C93.8631575,70.086191 94.4104315,69.8211377 95.0389932,69.8315505 C95.4553562,69.8315505 95.7857055,69.9517711 96.0290959,70.179433 C96.2720137,70.4094615 96.393,70.7213725 96.3901644,71.1127996 L96.3457397,74.913949 L94.4595822,74.8973832 L94.4813219,71.868675 C94.4921918,71.7044366 94.4373699,71.5671768 94.350411,71.4521626 C94.2573082,71.3433014 94.1259247,71.2940772 93.9808356,71.2940772 C93.5762877,71.2860309 93.3773219,71.4961804 93.3773219,71.909853 L93.3414041,74.8945434 L91.457137,74.8623583 L91.5095959,69.954611 L93.3929178,69.9711768" id="Fill-6" sketch:type="MSShapeGroup"></path>
                <path d="M100.573644,74.9745327 L100.576007,74.2787676 C100.204068,74.7194188 99.769274,74.9380878 99.2555548,74.9333547 C98.6265205,74.9248352 98.1312329,74.7033263 97.7739452,74.256522 C97.4261096,73.8158708 97.2540822,73.1887355 97.2597534,72.3893156 C97.2701507,71.6059882 97.4539932,70.9845327 97.8032466,70.5372551 C98.1506096,70.0970772 98.6265205,69.8722551 99.2309795,69.8807747 C99.7612397,69.8836145 100.218247,70.113643 100.576007,70.559974 L100.597747,70.5623405 L100.609089,70.0369668 L102.50139,70.0615789 L102.451767,74.6100843 C102.448932,75.0237569 102.358664,75.4208636 102.167733,75.8009313 C101.981527,76.1682195 101.672918,76.4611982 101.215911,76.6666145 C100.753705,76.8743974 100.256527,76.9865718 99.7177603,76.9728458 C99.1761575,76.9704793 98.6728356,76.8365327 98.2002329,76.5979846 C97.7266849,76.3651163 97.420911,75.9514437 97.2838562,75.3962515 L98.9738836,75.4175505 C99.1572534,75.6589384 99.4001712,75.7848387 99.6875137,75.7957249 C99.9332671,75.7957249 100.141212,75.7218886 100.316075,75.56049 C100.482904,75.4042978 100.573644,75.2069277 100.573644,74.9745327 M100.603418,72.394522 C100.600582,71.6007818 100.376568,71.2060416 99.882226,71.2060416 C99.6440342,71.1979953 99.4521575,71.2964437 99.318411,71.4829277 C99.1785205,71.6774579 99.1076301,71.9453512 99.1052671,72.2847142 C99.088726,73.1754829 99.3396781,73.6241804 99.8378014,73.6345932 C100.335925,73.6431128 100.593021,73.2242337 100.603418,72.394522" id="Fill-7" sketch:type="MSShapeGroup"></path>
                <path d="M113.096199,75.0810273 L111.056445,75.0644615 L110.733658,73.865095 L108.658932,73.8461626 L108.305897,75.0261234 L106.302062,75.0152373 L108.667438,67.9089668 L110.876384,67.9283725 L113.096199,75.0810273 L113.096199,75.0810273 Z M110.367863,72.5781661 C110.083356,71.5160594 109.867377,70.50507 109.735521,69.5494579 L109.706219,69.5409384 C109.547425,70.5296821 109.320103,71.5373583 109.033233,72.5724864 L110.367863,72.5781661 L110.367863,72.5781661 Z" id="Fill-8" sketch:type="MSShapeGroup"></path>
                <path d="M115.576418,70.193159 L115.562712,71.0115113 L115.58776,71.0143512 C116.041459,70.3763298 116.520205,70.0644188 117.02589,70.0644188 C117.091582,70.0667853 117.200753,70.0809846 117.326938,70.1022836 L117.307562,71.6197142 C117.083075,71.5922622 116.872767,71.5671768 116.675692,71.57049 C115.980966,71.5624437 115.64211,71.9264188 115.628404,72.668095 L115.603829,75.1056394 L113.72287,75.0810273 L113.772021,70.1709135 L115.576418,70.193159" id="Fill-9" sketch:type="MSShapeGroup"></path>
                <path d="M118.792007,68.9194829 L120.676274,68.9336821 L120.659733,70.2400167 L121.397466,70.2480629 L121.381397,71.5401982 L120.637993,71.529312 L120.599712,75.1520238 L118.731514,75.1354579 L118.767432,71.5075398 L118.045295,71.5018601 L118.064671,70.2172978 L118.778301,70.2229775 L118.792007,68.9194829" id="Fill-10" sketch:type="MSShapeGroup"></path>
                <path d="M131.44689,71.2637853 L131.435548,72.460312 C131.421842,73.3889455 131.148678,74.1140558 130.598568,74.6346964 C130.054603,75.1577035 129.310726,75.4095042 128.367884,75.4095042 C127.317288,75.4014579 126.489288,75.0616216 125.920747,74.4041946 C125.359767,73.7391946 125.083767,72.8081946 125.086603,71.6007818 C125.102671,70.3711234 125.398521,69.448643 125.975096,68.823401 C126.563014,68.2076252 127.399048,67.8928743 128.506829,67.91228 C129.748356,67.9170131 130.634014,68.4674722 131.170418,69.5660238 L129.294185,70.1737533 C129.13539,69.9489313 128.996918,69.7823263 128.865534,69.6781982 C128.728479,69.5712302 128.542274,69.5139597 128.313534,69.5139597 C127.913712,69.5030736 127.632041,69.6753583 127.465685,70.0180345 C127.295548,70.359764 127.202445,70.9130629 127.192048,71.682191 C127.189212,72.3973619 127.270973,72.9255754 127.457178,73.2654117 C127.645747,73.6024081 127.943959,73.7770594 128.356541,73.7770594 C129.012514,73.7832124 129.357041,73.3974651 129.381616,72.6297569 L128.471384,72.6193441 L128.487925,71.2386999 L131.44689,71.2637853" id="Fill-11" sketch:type="MSShapeGroup"></path>
                <path d="M134.790555,70.2092515 C135.646438,70.2229775 136.302411,70.4615256 136.743349,70.9324686 C137.194212,71.4114579 137.404048,72.068885 137.393651,72.9118494 C137.387979,73.7330416 137.15026,74.3686964 136.674349,74.8102942 C136.20411,75.2646715 135.56137,75.4719811 134.735733,75.467248 C133.942705,75.4696145 133.316507,75.2315398 132.857137,74.7658031 C132.401075,74.2953334 132.165247,73.6625184 132.173753,72.8626252 C132.179897,72.0248672 132.413836,71.3679135 132.862808,70.8941305 C133.305637,70.425554 133.953575,70.2064117 134.790555,70.2092515 M134.754637,74.076191 C135.006534,74.0818708 135.189432,73.990522 135.309945,73.8078245 C135.441329,73.6213405 135.509856,73.29807 135.512219,72.8436928 C135.515055,72.3864757 135.460233,72.0712515 135.339719,71.8909206 C135.212116,71.7072765 135.041979,71.6111946 134.799062,71.6111946 C134.566068,71.6059882 134.368993,71.6935505 134.254623,71.8606288 C134.126075,72.041433 134.054712,72.3590238 134.054712,72.8299668 C134.044315,73.6568387 134.27589,74.076191 134.754637,74.076191" id="Fill-12" sketch:type="MSShapeGroup"></path>
                <path d="M88.2911712,55.5314473 L89.1905342,54.7235078 L90.6263014,56.0388352 L89.978363,56.6815896 L87.7906849,56.6626572 L87.7524041,60.2773227 L88.6489315,60.2773227 L89.532226,59.4452444 L90.9646849,60.756312 L90.3167466,61.3943334 L86.4451849,61.3621483 C87.7249932,61.9343797 89.1442192,62.9444224 90.7383082,64.3799704 L88.6574384,66.3948494 C87.8318014,65.1628245 86.5434863,63.7935398 84.8019452,62.292675 L85.8515959,61.3564686 L81.7834315,61.3181305 L83.2735479,62.3584651 C81.4006233,64.0671128 79.5196644,65.3218565 77.6193288,66.1264829 L76.8069247,64.8068957 C78.2445822,63.7580416 79.4374315,62.5889668 80.377911,61.3072444 L77.1103356,61.268433 L76.8560753,60.1594686 L79.4591712,60.1897604 L79.4922534,56.5807747 L77.5200822,56.5580558 L77.2634589,55.4197462 L79.5111575,55.4467249 L79.5437671,52.1747355 L82.218226,52.5330309 L82.1964863,55.4684971 L85.1053562,55.4964224 L85.1356027,52.2675042 L87.8318014,52.6376323 L87.7958836,55.5290807 L88.2911712,55.5314473 L88.2911712,55.5314473 Z M82.1440274,60.2115327 L85.0533699,60.2498708 L85.0921233,56.6352053 L82.1827808,56.6020736 L82.1440274,60.2115327 L82.1440274,60.2115327 Z" id="Fill-13" sketch:type="MSShapeGroup"></path>
                <path d="M94.6486233,63.8867818 C94.2790479,64.7548316 93.7809247,65.5485718 93.154726,66.2609028 L92.4084863,65.7213298 C93.078637,63.7111839 93.423637,61.4875754 93.4505753,59.0727498 L93.4694795,56.7885576 C93.3135205,56.8491412 93.1495274,56.8983654 92.9831712,56.9423832 L92.4774863,56.1155113 C94.1831096,55.0027604 95.3702877,53.7551163 96.0257877,52.3413405 L98.6458973,52.9438636 C98.5475959,53.062191 98.4681986,53.1653725 98.3750959,53.2453619 C99.5755068,53.5984508 100.619959,54.0173298 101.498055,54.5048387 L99.9171986,56.3942907 C99.2744589,55.6194829 98.4790685,54.8910594 97.5357534,54.1867747 C96.595274,55.1130416 95.5995,55.8357853 94.5389795,56.3393868 L95.6056438,56.5007853 L95.6080068,56.6901092 L96.2370411,56.6953156 L96.2587808,55.3208245 L98.3944726,55.6332088 L98.3831301,56.7118814 L98.7248219,56.720401 L99.4143493,56.049248 L101.366199,57.5690451 L100.866185,58.0428281 L100.838774,61.302038 L98.6265205,61.6631732 L98.6458973,61.3181305 L95.4303082,61.2878387 C95.4137671,61.4463974 95.3811575,61.6054295 95.3291712,61.7587818 L96.8381918,61.9315398 L96.8358288,62.1724544 L98.7739726,62.199433 L99.4469589,61.5808174 L101.363836,63.0892551 L100.852007,63.5365327 L100.838774,65.9347925 L98.6950479,66.2798352 L98.7035548,65.6583797 L96.8027466,65.6394473 L96.7947123,65.9428387 L94.626411,66.203159 L94.6486233,63.8867818 L94.6486233,63.8867818 Z M98.6562945,60.2280985 L98.6562945,59.5815576 L95.572089,59.5488992 C95.5668904,59.7950202 95.5475137,60.0037498 95.5423151,60.1954402 L98.6562945,60.2280985 L98.6562945,60.2280985 Z M98.6704726,57.8293654 L95.597137,57.7967071 L95.5914658,58.4593405 L98.6648014,58.4863192 L98.6704726,57.8293654 L98.6704726,57.8293654 Z M98.7229315,63.2516003 L96.8164521,63.2402409 L96.8112534,64.5626679 L98.7082808,64.5820736 L98.7229315,63.2516003 L98.7229315,63.2516003 Z M101.519795,53.5624793 L103.439034,53.7986608 L103.343568,63.1796572 L101.410151,63.4044793 L101.519795,53.5624793 L101.519795,53.5624793 Z M104.147466,52.5548031 L106.184384,52.851095 L106.071904,64.3799704 C106.058199,65.7378957 105.492493,66.4118886 104.344068,66.4000558 L103.359637,66.389643 C103.373342,65.4529633 102.840247,64.9545683 101.751842,64.8887782 L101.838801,63.9194402 C102.515096,63.9549384 103.136096,63.9686644 103.69613,63.9852302 C103.920616,63.9852302 104.029788,63.8261982 104.034986,63.5251732 L104.147466,52.5548031 L104.147466,52.5548031 Z" id="Fill-14" sketch:type="MSShapeGroup"></path>
                <path d="M109.960479,63.3633014 C109.569164,63.7689277 109.156582,64.1494686 108.713753,64.4831519 L107.977911,63.776974 C108.740692,62.6765291 109.413678,61.3285434 109.979856,59.7301768 L108.661767,59.7107711 L108.382932,58.6287853 L109.867377,58.6458245 L109.881082,57.1558458 L108.410342,57.1473263 L108.155137,56.0653405 L109.897623,56.0766999 L109.902822,54.8825398 C109.607918,55.1404935 109.298363,55.4031804 108.976048,55.6493014 L108.109295,54.9237177 C108.677836,54.2748103 109.213767,53.4096003 109.711418,52.3413405 L111.675082,53.0371056 C111.559767,53.1847782 111.453432,53.3215647 111.348986,53.4204864 L120.008959,53.516095 L120.870514,52.7195149 L122.283596,54.0064437 L121.597377,54.6170131 L120.099226,54.6089668 L120.087884,56.1808281 L120.244315,56.1808281 L121.083658,55.4088601 L122.414979,56.6574508 L121.808158,57.2817462 L120.077014,57.2628138 L120.05811,58.7300736 L120.870514,57.9718316 L122.237281,59.219949 L121.594541,59.839038 L118.337836,59.8011732 L119.819918,60.0089562 L119.809521,60.8197355 L120.137507,60.8249419 L120.862007,60.1675149 L122.11724,61.3181305 L121.504747,61.9291732 L119.801014,61.9092942 L119.787781,63.9738708 L120.238171,63.9800238 L121.020801,63.3278031 L122.267055,64.4727391 L121.633295,65.0889882 L119.775966,65.0643761 L119.759897,66.5704473 L117.533938,66.8331341 L117.550479,65.0449704 L114.633103,65.0151519 L114.381678,63.9246466 L115.338699,63.9326928 L115.36611,61.8709562 L115.13926,61.8652765 L115.100979,61.707191 L114.725733,61.9916501 C113.796596,64.4287213 111.849473,66.0001092 108.864041,66.6906679 L108.292664,65.732216 C109.254884,65.337949 110.066815,64.8641661 110.72326,64.3302729 C110.515315,63.9686644 110.253021,63.6515469 109.960479,63.3633014 L109.960479,63.3633014 Z M111.888226,63.1280665 C112.194473,62.7257533 112.443062,62.2874686 112.642973,61.8330914 L111.212404,61.8165256 C111.05361,62.0243085 110.926007,62.2055861 110.799349,62.3887569 C111.158055,62.5993797 111.527158,62.8568601 111.888226,63.1280665 L111.888226,63.1280665 Z M117.60861,59.7950202 L110.971849,59.7349099 L112.205342,60.0089562 C112.0905,60.257917 111.975658,60.5021448 111.849473,60.7321732 L112.615089,60.7350131 L113.61039,60.1703547 L114.994171,61.3181305 L114.862788,60.7785576 L117.589233,60.8031697 L117.60861,59.7950202 L117.60861,59.7950202 Z M112.623596,54.5346572 L111.929342,54.5157249 L111.918,56.0989455 L112.607055,56.1069918 L112.623596,54.5346572 L112.623596,54.5346572 Z M112.590514,57.1832978 L111.901459,57.1771448 L111.879719,58.6671234 L112.582479,58.6728031 L112.590514,57.1832978 L112.590514,57.1832978 Z M115.327356,54.5569028 L114.51826,54.5512231 L114.510226,56.1202444 L115.319322,56.1344437 L115.327356,54.5569028 L115.327356,54.5569028 Z M115.308452,57.2102765 L114.491322,57.20507 L114.477144,58.689369 L115.286712,58.7002551 L115.308452,57.2102765 L115.308452,57.2102765 Z M116.957363,63.9520985 L117.561822,63.9577782 L117.580726,61.8903619 L116.979103,61.8846821 L116.957363,63.9520985 L116.957363,63.9520985 Z M118.081685,54.5819882 L117.244705,54.5706288 L117.231,56.1538494 L118.067034,56.1590558 L118.081685,54.5819882 L118.081685,54.5819882 Z M118.056637,57.2377284 L117.217295,57.2292088 L117.203116,58.7106679 L118.040096,58.7300736 L118.056637,57.2377284 L118.056637,57.2377284 Z" id="Fill-15" sketch:type="MSShapeGroup"></path>
                <path d="M127.675993,65.6228814 L127.667959,66.2746288 L125.141425,66.5751804 L125.214678,59.5924437 C125.130082,59.606643 125.045486,59.6118494 124.98263,59.6198957 L124.091301,57.1501661 C124.618726,57.1449597 125.143788,57.1307604 125.69626,57.1170345 C127.011514,55.8334188 128.192548,54.3292409 129.231329,52.6314793 L132.29663,53.3163583 C131.068808,54.6633974 129.688336,55.9015754 128.205781,57.0408316 C129.956301,56.9830878 131.796144,56.8761199 133.707822,56.7393334 C133.379836,56.3507462 133.048541,55.9862978 132.712521,55.6549811 L133.762171,54.592401 C135.274027,55.5342871 136.680021,56.7393334 137.984404,58.2127462 L136.061856,60.1216039 C135.596815,59.3112978 135.126575,58.582401 134.637432,57.9278138 C131.637822,58.6070131 128.531877,59.1489526 125.321486,59.5758779 L127.722308,59.8669633 L127.725144,60.2172124 L133.661034,60.2744829 L134.831671,59.3027782 L137.065192,61.0658565 L136.390315,61.7833939 L136.343527,66.3371056 L133.751301,66.6409704 L133.756973,65.6801519 L127.675993,65.6228814 L127.675993,65.6228814 Z M133.79289,61.5647249 L127.713801,61.5041412 L127.678829,64.3799704 L133.759336,64.434401 L133.79289,61.5647249 L133.79289,61.5647249 Z" id="Fill-16" sketch:type="MSShapeGroup"></path>
                <path d="M11.9407808,73.9872088 L15.3841644,73.1669633 C14.8562671,75.0313298 14.7395342,76.5814188 15.0334932,77.8172302 C15.3269795,79.0539882 15.9564863,79.94807 16.9215411,80.5023156 C17.8865959,81.0556145 19.0364384,81.1734686 20.3705959,80.8558779 C21.6329178,80.554853 22.5507123,79.9248779 23.122089,78.9640594 C23.6939384,78.0037142 23.8243767,76.8701377 23.5143493,75.5647498 C23.2430753,74.4212337 22.491637,73.1560772 21.2595616,71.7673868 L24.6816781,70.9523476 C25.6580753,72.6056181 26.2871096,74.0274402 26.569726,75.2163939 C27.0560342,77.2639313 26.7710548,79.1685291 25.7152603,80.9292409 C24.6589932,82.6913725 23.1263425,83.8112231 21.1177808,84.2897391 C19.0733014,84.7763014 17.1701301,84.4610772 15.4073219,83.3416999 C13.6445137,82.2232693 12.5154658,80.6211163 12.0197055,78.5347676 C11.7011712,77.1905683 11.6747055,75.6745576 11.9407808,73.9872088" id="Fill-17" sketch:type="MSShapeGroup"></path>
                <path d="M9.06263014,63.9355327 L9.13163014,61.3247569 L23.8187055,55.3421234 L23.728911,58.7329135 L20.8431986,59.9086145 L20.6839315,65.9087604 L23.5034795,67.2103619 L23.4141575,70.5836394 L9.06263014,63.9355327 L9.06263014,63.9355327 Z M13.8515137,62.7565184 L18.0822534,64.707974 L18.1810274,60.9929668 L13.8515137,62.7565184 L13.8515137,62.7565184 Z" id="Fill-18" sketch:type="MSShapeGroup"></path>
                <path d="M11.7593014,46.7321483 L13.5740959,43.1629206 L22.6589384,44.5071199 L16.2291781,37.9390024 L17.9796986,34.4961483 L31.8340479,39.3007142 L30.3789041,42.1623441 L20.6461233,38.7488352 L28.1945342,46.4604686 L27.501226,47.8240736 L16.7140685,46.2877106 L25.3107123,52.1340309 L23.8314658,55.0429918 L11.7593014,46.7321483" id="Fill-19" sketch:type="MSShapeGroup"></path>
                <path d="M22.7397534,27.299949 L26.5999726,23.6043476 C27.636863,22.6108708 28.7422808,22.0911768 29.9166986,22.0452658 C31.0901712,21.9993547 32.1152466,22.4357462 32.9919247,23.3534935 C33.5675548,23.95649 33.9579247,24.6792337 34.1625616,25.5193583 C34.3676712,26.3609028 34.2821301,27.2161732 33.906411,28.0865896 C33.5306918,28.957006 33.124726,29.6120665 32.6880411,30.0503512 L31.3085137,31.4319419 L35.1918904,35.4995647 L32.7759452,37.8131021 L22.7397534,27.299949 L22.7397534,27.299949 Z M26.9255959,26.9094686 L29.4932466,29.5997604 L30.4384521,28.6943192 C30.8458356,28.3047853 31.0637055,27.8357355 31.0934795,27.2862231 C31.1227808,26.7367106 30.9597329,26.2752337 30.6029178,25.9013192 C30.1950616,25.4748672 29.7163151,25.2997426 29.1647877,25.3773654 C28.6142055,25.4554615 28.0381027,25.7829918 27.4364795,26.3590095 L26.9255959,26.9094686 L26.9255959,26.9094686 Z" id="Fill-20" sketch:type="MSShapeGroup"></path>
                <path d="M36.4088425,25.6424188 C35.4948288,23.6975896 35.4319726,21.7669597 36.2183836,19.8500558 C37.0043219,17.9331519 38.3446233,16.5278957 40.2388151,15.6357071 C42.3333904,14.6483832 44.3651096,14.4680523 46.3335,15.0961341 C48.3018904,15.7237426 49.7428562,17.0097249 50.6559247,18.9536074 C51.5637945,20.8851839 51.639411,22.8087142 50.882774,24.7241982 C50.1256644,26.6387355 48.7182534,28.0813832 46.6595959,29.0516679 C44.5999932,30.0219526 42.6065548,30.186191 40.6792808,29.5434366 C38.7520068,28.9006821 37.3285274,27.600974 36.4088425,25.6424188 L36.4088425,25.6424188 Z M41.6121986,18.196312 C40.4188767,18.7335184 39.6438082,19.5641768 39.2865205,20.6873405 C38.9287603,21.8109775 39.0402945,22.9904651 39.6215959,24.2272231 C40.1707603,25.3962978 40.9954521,26.1914579 42.0951986,26.6117569 C43.1954178,27.0320558 44.3088699,26.9762053 45.4350822,26.4456252 C46.6189521,25.8880665 47.3968562,25.0588281 47.7687945,23.9569633 C48.1402603,22.8550985 48.0348699,21.6831839 47.4502603,20.4397996 C46.8760479,19.2172409 46.0579726,18.402675 44.9955616,17.997522 C43.9331507,17.5918957 42.8055205,17.658159 41.6121986,18.196312 L41.6121986,18.196312 Z" id="Fill-21" sketch:type="MSShapeGroup"></path>
                <path d="M51.3988562,11.394853 L55.9178836,10.8737391 C57.8059315,10.6560167 59.1386712,10.8737391 59.9151575,11.526433 C60.6921164,12.1800736 61.1368356,12.9974793 61.2497877,13.9795967 C61.3216233,14.6029455 61.2554589,15.1434651 61.0527123,15.6011555 C60.8504384,16.0593192 60.4945685,16.540675 59.9860479,17.0447498 C61.0966644,17.266732 61.9133219,17.6870309 62.4360205,18.3075398 C62.9582466,18.9280487 63.2630753,19.6200273 63.3509795,20.3834757 C63.5036301,21.7125291 63.135,22.8039811 62.2446164,23.6583049 C61.3537603,24.5116821 60.0238562,25.0408423 58.2534863,25.245312 L53.061,25.844522 L51.3988562,11.394853 L51.3988562,11.394853 Z M55.0208836,13.4300843 L55.3852603,16.5993654 L56.1499315,16.5113298 C56.7146918,16.4460131 57.1702808,16.2245042 57.5157534,15.8449099 C57.8616986,15.4657889 58.0058425,15.0293974 57.9496027,14.5357355 C57.9032877,14.1381555 57.6764384,13.8234046 57.2685822,13.5910095 C56.8597808,13.3581412 56.3734726,13.2743654 55.8091849,13.3396821 L55.0208836,13.4300843 L55.0208836,13.4300843 Z M55.6674041,19.053949 L56.1258288,23.0373227 L57.3238767,22.8995896 C59.1561575,22.6880202 60.000226,21.9572302 59.8560822,20.7062729 C59.7781027,20.0294402 59.4954863,19.5348316 59.0068151,19.221974 C58.519089,18.9095896 57.8602808,18.8007284 57.0299178,18.8968103 L55.6674041,19.053949 L55.6674041,19.053949 Z" id="Fill-22" sketch:type="MSShapeGroup"></path>
                <path d="M72.4320411,11.1189135 L74.9968562,11.5879633 L78.6467671,27.0410487 L75.3144452,26.4314259 L74.5975068,23.3951448 L68.7017877,22.3169455 L66.9843493,24.9083156 L63.6709315,24.302006 L72.4320411,11.1189135 L72.4320411,11.1189135 Z M72.8606918,16.0394402 L70.2854795,19.926732 L73.935863,20.5945718 L72.8606918,16.0394402 L72.8606918,16.0394402 Z" id="Fill-23" sketch:type="MSShapeGroup"></path>
                <path d="M95.3466575,23.7988779 L92.4368425,24.3673227 C92.4075411,23.4803405 92.1877808,22.7026928 91.7766164,22.0343797 C91.3659247,21.3660665 90.8342466,20.8425861 90.1815822,20.4653583 C89.1243699,19.853369 87.9905959,19.6962302 86.7797877,19.9934686 C85.5689795,20.2911804 84.670089,20.9486074 84.0840616,21.9648031 C83.4606986,23.0458423 83.3217534,24.1874651 83.6676986,25.3896715 C84.0131712,26.5918779 84.7357808,27.5105718 85.8341096,28.1462266 C86.4314795,28.4912693 87.0869795,28.6839063 87.8025,28.7222444 C88.5175479,28.7605825 89.2666233,28.4898494 90.0492534,27.9109918 L86.8459521,26.0579846 L88.2628151,23.6019811 L94.5040068,27.2128601 L93.5635274,28.843885 C93.0795822,29.6811697 92.2515822,30.4029668 91.0790548,31.0073832 C89.9055822,31.6122729 88.6862671,31.8446679 87.4211096,31.7055149 C86.1550068,31.5663619 85.0075274,31.1986003 83.977726,30.6022302 C82.11,29.522611 80.897774,27.9810416 80.3405753,25.9789419 C79.7829041,23.9758957 80.0390548,22.047159 81.1090274,20.192732 C82.1237055,18.4343868 83.6506849,17.3135896 85.6913836,16.8317604 C87.7330274,16.3489846 89.6834589,16.6462231 91.5440959,17.7230024 C93.9193973,19.0970202 95.1873904,21.122312 95.3466575,23.7988779" id="Fill-24" sketch:type="MSShapeGroup"></path>
                <path d="M64.9067877,132.899109 C64.5584795,132.899109 64.211589,132.896743 63.8599726,132.891536 C43.9392945,132.609917 28.2451027,125.605881 17.2136096,112.07538 C9.69780822,102.857202 4.5024863,90.9899099 1.33037671,75.7961982 L3.64376712,75.3115291 C11.1959589,111.489422 31.4673082,130.066351 63.8930548,130.525462 C86.4328973,130.82838 101.294363,120.424561 109.779,111.626682 C118.217795,102.876607 122.232082,93.9424152 122.893726,92.3847533 L122.247205,82.8551377 L124.604548,82.695159 L125.287932,92.7681341 L125.190103,93.0161483 C125.027527,93.4307676 121.080822,103.28744 111.544171,113.202803 C102.861041,122.230237 87.7585479,132.898163 64.9067877,132.899109" id="Fill-25" sketch:type="MSShapeGroup"></path>
                <path d="M35.9357671,52.7531199 L34.0519726,51.3246715 C34.5033082,50.7268814 45.2625822,36.6752658 58.4964041,35.2397177 C68.9437603,34.1070878 74.3337945,35.5028779 86.7840411,46.3747996 L110.531384,26.4882231 L110.531384,23.2427391 L112.894397,23.2427391 L112.894397,27.5943476 L86.7448151,49.49249 L85.9839247,48.819917 C72.9216575,37.2777889 68.1389178,36.5744508 58.751137,37.5925398 C46.5390822,38.9168601 36.0402123,52.6149135 35.9357671,52.7531199" id="Fill-26" sketch:type="MSShapeGroup"></path>
                <path d="M85.5841027,42.5703369 L87.9471164,42.5703369 L87.9471164,47.9329348 L85.5841027,47.9329348 L85.5841027,42.5703369 Z" id="Fill-27" sketch:type="MSShapeGroup"></path>
            </g>
        </g>
    </g>
</svg>